<svg width="329" height="80" viewBox="0 0 329 80" fill="none" xmlns="http://www.w3.org/2000/svg">
<g clip-path="url(#clip0)">
<path d="M63.8054 60.8734C77.8858 60.8734 89.3001 49.4645 89.3001 35.3908C89.3001 21.3172 77.8858 9.9082 63.8054 9.9082C49.7251 9.9082 38.3107 21.3172 38.3107 35.3908C38.3107 49.4645 49.7251 60.8734 63.8054 60.8734Z" fill="#B5E8E0"/>
<path d="M63.8054 9.9082C62.9884 9.9082 62.1808 9.94829 61.3835 10.0234C74.3277 11.2428 84.4564 22.1337 84.4564 35.3908C84.4564 48.6479 74.3277 59.5388 61.3835 60.7583C62.1808 60.8333 62.9884 60.8734 63.8054 60.8734C77.8857 60.8734 89.3001 49.4644 89.3001 35.3908C89.3001 21.3172 77.8858 9.9082 63.8054 9.9082Z" fill="#97DBD1"/>
<path d="M80.8014 48.782L80.8387 64.9815C80.841 65.9655 82.0926 66.3834 82.6861 65.5983L86.1901 60.9621C86.4183 60.6601 86.7945 60.508 87.1686 60.5664L92.9121 61.4635C93.8847 61.6154 94.4937 60.4452 93.8109 59.7364L82.569 48.0671C81.9269 47.4004 80.7994 47.8563 80.8014 48.782Z" fill="#FFF7E8"/>
<path d="M93.811 59.7363L82.5691 48.0671C81.9269 47.4005 80.7994 47.8563 80.8014 48.782L80.8071 51.2661L88.9671 59.7363C89.2946 60.0762 89.3245 60.522 89.16 60.8774L92.9121 61.4634C93.8849 61.6153 94.4938 60.4451 93.811 59.7363Z" fill="#FFF1D6"/>
<path d="M69.9493 70.0918H36.138C34.9121 70.0918 33.9183 69.098 33.9183 67.872V59.331C33.9183 58.1051 34.9121 57.1113 36.138 57.1113H69.9493C71.1753 57.1113 72.1691 58.1051 72.1691 59.331V67.872C72.1691 69.098 71.1753 70.0918 69.9493 70.0918Z" fill="#FF9E5E"/>
<path d="M69.9493 57.1114H65.1056C66.3315 57.1114 67.3254 58.1052 67.3254 59.3312V67.8722C67.3254 69.0981 66.3315 70.0919 65.1056 70.0919H69.9493C71.1753 70.0919 72.1691 69.0981 72.1691 67.8722V59.3312C72.1691 58.1052 71.1753 57.1114 69.9493 57.1114Z" fill="#FA8D46"/>
<path d="M94.4649 59.1062L85.7532 50.0634C88.6696 45.7162 90.2081 40.6602 90.2081 35.3908C90.2081 27.9475 87.0391 20.8127 81.5137 15.8158C80.6432 15.0279 79.4245 16.3753 80.2954 17.1629C82.9754 19.5866 85.0583 22.5511 86.4408 25.8141H74.7737C73.6795 19.3144 71.4917 14.1194 68.688 11.3062C71.2498 11.8234 73.7207 12.7442 75.9935 14.0436C77.013 14.6264 77.9145 13.0493 76.8949 12.4667C72.928 10.1987 68.4017 9 63.8054 9C56.753 9 50.1228 11.7451 45.1359 16.7295C40.1489 21.7141 37.4025 28.3415 37.4025 35.3908C37.4025 43.6068 41.16 51.2174 47.5663 56.2032H36.1379C34.4132 56.2032 33.0099 57.6063 33.0099 59.3312V67.8722C33.0099 69.5969 34.4132 71 36.1379 71H39.7902C40.9645 71 40.9645 69.1836 39.7902 69.1836H36.1379C35.4146 69.1836 34.8264 68.5953 34.8264 67.872V59.331C34.8264 58.6079 35.4146 58.0195 36.1379 58.0195H69.9492C70.6725 58.0195 71.2608 58.6077 71.2608 59.331V67.872C71.2608 68.5952 70.6725 69.1836 69.9492 69.1836H44.6295C43.4553 69.1836 43.4553 71 44.6295 71H69.9492C71.674 71 73.0772 69.5969 73.0772 67.872V60.108C75.5388 59.1859 77.8289 57.9094 79.9104 56.3035L79.9304 64.9836C79.9345 66.8006 82.3161 67.5939 83.4105 66.1458L86.9145 61.5099C86.941 61.4746 86.9837 61.457 87.0283 61.4639L92.7719 62.3609C94.5382 62.6361 95.726 60.415 94.4649 59.1062ZM87.1277 27.6305C87.9552 30.1109 88.3918 32.7294 88.3918 35.3908C88.3918 38.0614 87.9668 40.6728 87.1426 43.1511H75.0389C75.3689 40.6744 75.5437 38.0643 75.5437 35.3908C75.5437 32.6789 75.3699 30.0754 75.0466 27.6305H87.1277ZM68.984 56.2032H58.6266C56.8324 53.4303 55.4765 49.5056 54.6834 44.9675H72.9273C72.1341 49.5057 70.7782 53.4304 68.984 56.2032ZM54.3993 43.1511C54.0615 40.6877 53.8834 38.0749 53.8834 35.3908C53.8834 32.7127 54.0604 30.1014 54.4004 27.6305H73.2102C73.5502 30.1014 73.7272 32.7127 73.7272 35.3908C73.7272 38.0749 73.5491 40.6877 73.2113 43.1511H54.3993ZM39.2189 35.3908C39.2189 32.6801 39.6614 30.071 40.4761 27.6305H52.5642C52.2409 30.0754 52.0671 32.6789 52.0671 35.3908C52.0671 38.0643 52.2418 40.6744 52.5718 43.1511H40.4674C39.651 40.6875 39.2189 38.0741 39.2189 35.3908ZM70.6276 17.7271C71.627 20.0785 72.4019 22.8222 72.9269 25.8141H54.6838C55.2089 22.8224 55.9837 20.0785 56.9831 17.7271C58.8497 13.3353 61.3363 10.8164 63.8054 10.8164C66.2745 10.8164 68.7611 13.3353 70.6276 17.7271ZM58.9253 11.3033C56.1202 14.1158 53.9314 19.3122 52.8368 25.8141H41.163C44.2901 18.4558 50.9068 12.9237 58.9253 11.3033ZM50.5854 56.1142C46.2991 53.3767 43.0553 49.4772 41.1511 44.9675H52.8445C53.5887 49.371 54.8442 53.2621 56.5058 56.2032H50.701C50.6652 56.1712 50.6272 56.1409 50.5854 56.1142ZM72.8792 58.2367C72.5571 57.3772 71.8672 56.6962 71.002 56.386C72.715 53.4244 74.0066 49.4621 74.7662 44.9676H86.457C85.9056 46.2677 85.2394 47.5233 84.462 48.7231L83.2232 47.4372C82.0553 46.2246 79.8895 47.0784 79.8932 48.7841L79.9052 53.9636C77.8029 55.7857 75.4435 57.2198 72.8792 58.2367ZM93.1767 60.5033C93.1371 60.5794 93.084 60.571 93.0524 60.5662L87.3089 59.6691C86.6023 59.5587 85.8967 59.8444 85.4656 60.4145L81.9615 65.0507C81.8558 65.1295 81.7842 65.1058 81.7469 64.9795L81.7095 48.7799C81.7406 48.66 81.8092 48.6325 81.9149 48.6973L93.1569 60.3665C93.179 60.3894 93.216 60.4278 93.1767 60.5033Z" fill="black"/>
<path d="M45.1512 66.8183L47.0565 60.9453C47.4189 59.8284 45.6908 59.2677 45.3287 60.3848L44.187 63.9038L43.0091 61.0366C42.7069 60.3006 41.6312 60.3006 41.329 61.0366L40.1513 63.9039L39.0095 60.3848C38.6475 59.2678 36.9195 59.8284 37.2818 60.9453L39.1872 66.8183C39.4406 67.5994 40.5778 67.6457 40.8911 66.8831L42.1691 63.772L43.4471 66.8831C43.7619 67.6491 44.8958 67.6057 45.1512 66.8183Z" fill="black"/>
<path d="M50.8911 67.4455C51.2706 67.4599 51.6211 67.2354 51.7658 66.8831L53.0437 63.772L54.3217 66.8831C54.6326 67.6398 55.7704 67.605 56.0256 66.8183L57.931 60.9453C58.2935 59.8284 56.5653 59.2677 56.2033 60.3848L55.0615 63.9039L53.8836 61.0368C53.5813 60.3008 52.5057 60.3008 52.2034 61.0368L51.0257 63.9039L49.8839 60.3849C49.5218 59.268 47.7938 59.8285 48.1561 60.9455L50.0615 66.8184C50.1793 67.1806 50.5105 67.4311 50.8911 67.4455Z" fill="black"/>
<path d="M61.7656 67.4455C62.1439 67.4599 62.4954 67.2356 62.6403 66.8831L63.9183 63.772L65.1963 66.8831C65.5071 67.6398 66.6449 67.605 66.9002 66.8183L68.8056 60.9453C69.1681 59.8284 67.4399 59.2677 67.0779 60.3848L65.9361 63.9039L64.7582 61.0368C64.4559 60.3008 63.3803 60.3008 63.078 61.0368L61.9002 63.9039L60.7585 60.3848C60.3961 59.268 58.6684 59.8284 59.0307 60.9453L60.9361 66.8183C61.0538 67.1806 61.385 67.4311 61.7656 67.4455Z" fill="black"/>
</g>
<path d="M132.188 37.51H130.298C129.85 37.51 129.486 37.65 129.206 37.93C128.926 38.182 128.604 38.7 128.24 39.484L124.796 47.212C124.684 47.492 124.516 47.66 124.292 47.716C124.068 47.772 123.858 47.8 123.662 47.8H123.452C123.228 47.8 123.018 47.716 122.822 47.548C122.626 47.352 122.514 47.142 122.486 46.918L121.436 42.13C121.324 41.598 121.254 40.912 121.226 40.072C121.226 39.232 121.226 38.504 121.226 37.888V25.54H120.806V37.93C120.806 38.546 120.806 39.274 120.806 40.114C120.834 40.954 120.904 41.64 121.016 42.172L122.066 46.918C122.178 47.366 122.346 47.702 122.57 47.926C122.822 48.122 123.116 48.22 123.452 48.22H123.746C123.998 48.22 124.264 48.178 124.544 48.094C124.824 47.982 125.02 47.786 125.132 47.506L128.576 39.694C128.912 38.938 129.192 38.462 129.416 38.266C129.668 38.042 129.962 37.93 130.298 37.93H132.188C132.524 37.93 132.804 38.042 133.028 38.266C133.28 38.462 133.574 38.938 133.91 39.694L137.354 47.506C137.466 47.786 137.662 47.982 137.942 48.094C138.222 48.178 138.488 48.22 138.74 48.22H139.034C139.37 48.22 139.65 48.122 139.874 47.926C140.126 47.702 140.308 47.366 140.42 46.918L141.47 42.172C141.582 41.64 141.638 40.954 141.638 40.114C141.666 39.274 141.68 38.546 141.68 37.93V25.54H141.26V37.888C141.26 38.504 141.246 39.232 141.218 40.072C141.218 40.912 141.162 41.598 141.05 42.13L140 46.918C139.972 47.142 139.86 47.352 139.664 47.548C139.468 47.716 139.258 47.8 139.034 47.8H138.824C138.628 47.8 138.418 47.772 138.194 47.716C137.97 47.66 137.802 47.492 137.69 47.212L134.246 39.484C133.882 38.7 133.56 38.182 133.28 37.93C133 37.65 132.636 37.51 132.188 37.51ZM138.362 21.76H144.62C145.152 21.76 145.53 21.886 145.754 22.138C146.006 22.362 146.132 22.74 146.132 23.272V39.568C146.132 40.464 146.09 41.304 146.006 42.088C145.95 42.844 145.74 43.74 145.376 44.776L143.276 50.488C143.136 50.908 142.926 51.272 142.646 51.58C142.394 51.86 142.044 52 141.596 52H136.01C135.562 52 135.156 51.902 134.792 51.706C134.428 51.51 134.19 51.188 134.078 50.74L132.146 43.894C132.062 43.614 131.95 43.432 131.81 43.348C131.698 43.236 131.558 43.18 131.39 43.18H131.012C130.844 43.18 130.69 43.236 130.55 43.348C130.438 43.432 130.34 43.614 130.256 43.894L128.282 50.74C128.17 51.16 127.96 51.482 127.652 51.706C127.344 51.902 126.966 52 126.518 52H120.974C120.526 52 120.134 51.86 119.798 51.58C119.49 51.3 119.266 50.936 119.126 50.488L117.026 44.692C116.662 43.656 116.438 42.76 116.354 42.004C116.298 41.22 116.27 40.38 116.27 39.484V23.272C116.27 22.74 116.382 22.362 116.606 22.138C116.858 21.886 117.25 21.76 117.782 21.76H124.25C124.782 21.76 125.16 21.886 125.384 22.138C125.636 22.362 125.762 22.74 125.762 23.272V38.728L128.198 33.436C128.422 32.96 128.716 32.624 129.08 32.428C129.444 32.232 129.892 32.134 130.424 32.134H132.188C132.72 32.134 133.168 32.232 133.532 32.428C133.896 32.624 134.19 32.96 134.414 33.436L136.85 38.728V23.272C136.85 22.74 136.962 22.362 137.186 22.138C137.438 21.886 137.83 21.76 138.362 21.76ZM159.051 40.234C159.051 39.5187 158.669 39.161 157.904 39.161C156.893 39.161 156.005 39.679 155.24 40.715C154.476 41.751 154.093 42.9967 154.093 44.452C154.093 44.7973 154.143 44.97 154.241 44.97C155.129 44.9453 156.153 44.4397 157.312 43.453C158.472 42.4417 159.051 41.3687 159.051 40.234ZM162.27 52C161.432 52.5673 159.791 52.851 157.349 52.851C154.907 52.851 153.033 52.1233 151.725 50.668C150.418 49.2127 149.764 47.2763 149.764 44.859C149.764 42.417 150.541 40.308 152.095 38.532C153.674 36.7313 155.882 35.831 158.718 35.831C159.878 35.831 160.938 36.1393 161.9 36.756C162.887 37.3727 163.38 38.458 163.38 40.012C163.38 41.5413 162.702 43.0583 161.345 44.563C160.013 46.0677 158.188 47.2147 155.869 48.004C155.869 48.3 156.165 48.5467 156.757 48.744C157.374 48.9167 157.978 49.003 158.57 49.003C160.445 49.003 161.925 48.67 163.01 48.004C163.035 47.9793 163.072 47.967 163.121 47.967C163.171 47.967 163.195 48.2013 163.195 48.67C163.195 50.1007 162.887 51.2107 162.27 52ZM166.084 46.672L166.01 33.019C166.01 29.9357 166.071 28.3323 166.195 28.209C166.491 27.913 166.972 27.6293 167.638 27.358C168.328 27.0867 168.982 26.951 169.599 26.951C170.215 26.951 170.524 27.0003 170.524 27.099C170.474 27.3457 170.4 28.7517 170.302 31.317C170.228 33.8577 170.203 35.4363 170.228 36.053H170.82C173.558 36.053 175.79 36.682 177.517 37.94C178.207 38.458 178.812 39.235 179.33 40.271C179.848 41.2823 180.107 42.4663 180.107 43.823C180.107 46.1663 179.157 48.1273 177.258 49.706C175.358 51.26 173.027 52.259 170.265 52.703C170.265 53.2703 170.252 53.5787 170.228 53.628C169.907 53.9487 169.34 54.1953 168.526 54.368C167.736 54.5407 167.083 54.627 166.565 54.627C166.071 54.627 165.825 54.59 165.825 54.516C165.997 53.8253 166.084 51.2107 166.084 46.672ZM170.339 48.633C170.98 48.633 171.646 48.5343 172.337 48.337C173.027 48.115 173.582 47.8437 174.002 47.523C174.446 47.2023 174.84 46.6967 175.186 46.006C175.556 45.3153 175.741 44.415 175.741 43.305C175.741 42.195 175.346 41.344 174.557 40.752C173.792 40.16 172.904 39.864 171.893 39.864L170.191 39.975V42.639C170.191 45.969 170.24 47.967 170.339 48.633ZM203.675 54.275H198.925C197.059 54.275 195.517 54.125 194.3 53.825C193.084 53.525 192.125 53.1083 191.425 52.575C190.742 52.0417 190.259 51.4 189.975 50.65C189.709 49.8833 189.575 49.05 189.575 48.15V37.9C189.575 36.9833 189.709 36.15 189.975 35.4C190.259 34.6333 190.742 33.9833 191.425 33.45C192.125 32.9 193.084 32.475 194.3 32.175C195.517 31.875 197.059 31.725 198.925 31.725C200.792 31.725 202.334 31.875 203.55 32.175C204.767 32.475 205.717 32.9 206.4 33.45C207.1 33.9833 207.584 34.6333 207.85 35.4C208.117 36.15 208.25 36.9833 208.25 37.9V44.4C208.25 45.1667 208.175 45.8667 208.025 46.5C207.892 47.1167 207.617 47.65 207.2 48.1C206.8 48.5333 206.234 48.875 205.5 49.125C204.767 49.375 203.817 49.5 202.65 49.5H197.925C196.242 49.5 195.084 49.1667 194.45 48.5C193.834 47.8167 193.525 46.9333 193.525 45.85V41.025C193.525 39.925 193.834 39.0417 194.45 38.375C195.084 37.6917 196.242 37.35 197.925 37.35H203.55C203.767 37.35 203.925 37.4083 204.025 37.525C204.142 37.625 204.2 37.7833 204.2 38V46.725C204.85 46.725 205.267 46.5167 205.45 46.1C205.65 45.6667 205.75 45.1167 205.75 44.45V37.8C205.75 37.2667 205.65 36.775 205.45 36.325C205.25 35.8583 204.9 35.4667 204.4 35.15C203.9 34.8333 203.2 34.5833 202.3 34.4C201.417 34.2167 200.292 34.125 198.925 34.125C197.559 34.125 196.425 34.2167 195.525 34.4C194.642 34.5833 193.942 34.8333 193.425 35.15C192.925 35.4667 192.575 35.8583 192.375 36.325C192.175 36.775 192.075 37.2667 192.075 37.8V48.25C192.075 48.7833 192.175 49.275 192.375 49.725C192.575 50.175 192.925 50.5583 193.425 50.875C193.942 51.1917 194.642 51.4417 195.525 51.625C196.425 51.7917 197.559 51.875 198.925 51.875H203.675C203.992 51.875 204.209 51.9333 204.325 52.05C204.459 52.1833 204.525 52.4083 204.525 52.725V53.425C204.525 53.7417 204.459 53.9583 204.325 54.075C204.209 54.2083 203.992 54.275 203.675 54.275ZM198.45 46.075H200.125V40.55H198.7C198.234 40.55 197.934 40.65 197.8 40.85C197.667 41.0333 197.6 41.2333 197.6 41.45V45.225C197.6 45.475 197.659 45.6833 197.775 45.85C197.892 46 198.117 46.075 198.45 46.075ZM234.796 52H221.524C220.992 52 220.6 51.888 220.348 51.664C220.124 51.412 220.012 51.02 220.012 50.488V45.574C220.012 45.042 220.124 44.664 220.348 44.44C220.6 44.188 220.992 44.062 221.524 44.062H232.822C233.186 44.062 233.452 43.95 233.62 43.726C233.816 43.474 233.914 43.18 233.914 42.844C233.914 42.368 233.816 42.018 233.62 41.794C233.452 41.57 233.186 41.444 232.822 41.416L226.522 40.534C224.562 40.254 222.98 39.61 221.776 38.602C220.6 37.594 220.012 35.914 220.012 33.562V29.152C220.012 26.772 220.782 24.952 222.322 23.692C223.862 22.404 225.99 21.76 228.706 21.76H240.466C240.998 21.76 241.376 21.886 241.6 22.138C241.852 22.362 241.978 22.74 241.978 23.272V28.27C241.978 28.802 241.852 29.194 241.6 29.446C241.376 29.67 240.998 29.782 240.466 29.782H230.68C230.316 29.782 230.036 29.908 229.84 30.16C229.644 30.384 229.546 30.678 229.546 31.042C229.546 31.406 229.644 31.714 229.84 31.966C230.036 32.218 230.316 32.358 230.68 32.386L236.938 33.226C238.898 33.506 240.48 34.15 241.684 35.158C242.888 36.166 243.49 37.846 243.49 40.198V44.608C243.49 46.988 242.706 48.822 241.138 50.11C239.598 51.37 237.484 52 234.796 52ZM238.198 25.54H228.874C227.586 25.54 226.55 25.904 225.766 26.632C224.982 27.332 224.59 28.242 224.59 29.362V32.806C224.59 33.954 224.814 34.752 225.262 35.2C225.738 35.62 226.34 35.9 227.068 36.04L235.93 37.846C236.714 38.014 237.33 38.35 237.778 38.854C238.254 39.33 238.492 40.226 238.492 41.542V43.978C238.492 45.098 238.1 46.022 237.316 46.75C236.56 47.45 235.538 47.8 234.25 47.8H223.792V48.22H234.25C235.678 48.22 236.812 47.828 237.652 47.044C238.492 46.232 238.912 45.21 238.912 43.978V41.542C238.912 40.086 238.632 39.078 238.072 38.518C237.54 37.958 236.854 37.594 236.014 37.426L227.152 35.62C226.508 35.508 225.99 35.256 225.598 34.864C225.206 34.472 225.01 33.786 225.01 32.806V29.362C225.01 28.382 225.36 27.57 226.06 26.926C226.76 26.282 227.698 25.96 228.874 25.96H238.198V25.54ZM254.585 53.073C251.773 53.073 249.688 52.3577 248.332 50.927C246.975 49.4963 246.297 47.6957 246.297 45.525C246.297 42.491 247.308 40.0737 249.331 38.273C251.378 36.4723 253.869 35.572 256.805 35.572C257.372 35.572 257.705 35.5843 257.804 35.609C257.952 35.7323 258.026 36.3243 258.026 37.385C258.026 38.4457 257.878 39.087 257.582 39.309H257.323C255.423 39.309 253.882 39.753 252.698 40.641C252.204 41.011 251.773 41.5907 251.403 42.38C251.033 43.1693 250.848 44.119 250.848 45.229C250.848 46.339 251.181 47.264 251.847 48.004C252.513 48.7193 253.586 49.077 255.066 49.077C256.225 49.077 257.249 48.855 258.137 48.411C258.235 48.3617 258.297 48.337 258.322 48.337C258.519 48.5343 258.618 49.2003 258.618 50.335C258.618 51.4697 258.482 52.148 258.211 52.37C257.397 52.8387 256.188 53.073 254.585 53.073ZM274.193 43.749C274.193 46.8323 274.23 48.633 274.304 49.151C274.501 50.5077 274.92 51.482 275.562 52.074C275.562 52.3453 275.068 52.7523 274.082 53.295C273.12 53.8377 272.244 54.109 271.455 54.109C271.233 54.109 270.998 53.776 270.752 53.11C270.505 52.4687 270.357 51.9877 270.308 51.667C270.283 51.3463 270.258 51.186 270.234 51.186L270.123 51.26C268.815 52.296 267.286 52.814 265.535 52.814C263.783 52.814 262.427 52.3947 261.465 51.556C260.527 50.6927 260.059 49.5703 260.059 48.189C260.059 46.8077 260.355 45.6483 260.947 44.711C261.563 43.749 262.279 43.0213 263.093 42.528C263.907 42.0347 264.807 41.64 265.794 41.344C267.298 40.8507 268.482 40.604 269.346 40.604L269.42 40.567C269.42 39.3583 267.89 38.754 264.832 38.754C263.623 38.754 262.723 38.8033 262.131 38.902H262.094C262.094 38.4087 262.242 37.792 262.538 37.052C262.858 36.312 263.117 35.831 263.315 35.609C263.537 35.387 264.425 35.276 265.979 35.276C268.791 35.276 270.863 35.8187 272.195 36.904C273.527 37.9647 274.193 39.6173 274.193 41.862V43.749ZM270.086 46.117V44.711C270.086 44.1683 270.073 43.897 270.049 43.897C268.396 43.897 266.965 44.3287 265.757 45.192C264.992 45.7347 264.61 46.413 264.61 47.227C264.61 47.745 264.795 48.1767 265.165 48.522C265.535 48.8673 266.09 49.04 266.83 49.04C267.594 49.04 268.322 48.818 269.013 48.374C269.728 47.93 270.086 47.1777 270.086 46.117ZM277.966 46.746L278.114 33.352C278.114 31.4033 278.09 30.0837 278.04 29.393C277.991 28.7023 277.966 28.3323 277.966 28.283C277.966 28.0363 278.373 27.7527 279.187 27.432C280.026 27.1113 280.766 26.951 281.407 26.951C282.049 26.951 282.369 27.0003 282.369 27.099C282.246 28.0117 282.184 31.2183 282.184 36.719L282.11 45.784C282.11 47.486 282.135 48.5343 282.184 48.929C282.308 50.0143 282.665 51.001 283.257 51.889C283.257 52.1357 282.752 52.5303 281.74 53.073C280.729 53.6157 279.866 53.887 279.15 53.887C278.953 53.887 278.731 53.517 278.484 52.777C278.238 52.037 278.09 51.3957 278.04 50.853C277.991 50.3103 277.966 48.9413 277.966 46.746ZM294.751 40.234C294.751 39.5187 294.369 39.161 293.604 39.161C292.593 39.161 291.705 39.679 290.94 40.715C290.176 41.751 289.793 42.9967 289.793 44.452C289.793 44.7973 289.843 44.97 289.941 44.97C290.829 44.9453 291.853 44.4397 293.012 43.453C294.172 42.4417 294.751 41.3687 294.751 40.234ZM297.97 52C297.132 52.5673 295.491 52.851 293.049 52.851C290.607 52.851 288.733 52.1233 287.425 50.668C286.118 49.2127 285.464 47.2763 285.464 44.859C285.464 42.417 286.241 40.308 287.795 38.532C289.374 36.7313 291.582 35.831 294.418 35.831C295.578 35.831 296.638 36.1393 297.6 36.756C298.587 37.3727 299.08 38.458 299.08 40.012C299.08 41.5413 298.402 43.0583 297.045 44.563C295.713 46.0677 293.888 47.2147 291.569 48.004C291.569 48.3 291.865 48.5467 292.457 48.744C293.074 48.9167 293.678 49.003 294.27 49.003C296.145 49.003 297.625 48.67 298.71 48.004C298.735 47.9793 298.772 47.967 298.821 47.967C298.871 47.967 298.895 48.2013 298.895 48.67C298.895 50.1007 298.587 51.2107 297.97 52Z" fill="#292E66"/>
<defs>
<clipPath id="clip0">
<rect width="62" height="62" fill="white" transform="translate(33 9)"/>
</clipPath>
</defs>
</svg>
